<?xml version="1.0"?>
<svg xmlns="http://www.w3.org/2000/svg" id="_x33_0" enable-background="new 0 0 64 64" height="512px" viewBox="0 0 64 64" width="512px" class=""><g><g><g><g><path d="m19.81 46.85c3.09 3.18 7.41 5.15 12.19 5.15 6.68 0 12.46-3.85 15.24-9.46.25.76.67 1.44 1.22 2 .35.35.75.64 1.19.87l-.65 2.59-1.92.55c-3.01.86-5.08 3.6-5.08 6.73v2.64l-3.2 1.32-1.21-2.9c-.24-.58-.86-.89-1.49-.77 0 0-.01.01-.02.01-.62.12-1.08.65-1.08 1.28v3.14h-6v-3.14c0-.63-.46-1.16-1.08-1.28-.01 0-.02-.01-.02-.01-.63-.12-1.25.19-1.49.77l-1.21 2.9-3.2-1.32v-2.64c0-2.73-1.58-5.17-3.98-6.31-.35-.17-.72-.31-1.1-.42l-1.92-.55 3.49-.58c.5-.08.94-.28 1.32-.57z" fill="#fcd770" data-original="#FCD770"/></g><g><path d="m28.33 18.4c-6.24 1.37-11.19 6.17-12.79 12.32v.01c-1.09-.47-2.28-.73-3.54-.73-.23 0-.46.01-.68.03-.14-.28-.37-.5-.66-.62l-2.91-1.21 2.3-5.54 2.9 1.2c.59.25 1.25.02 1.6-.5 0-.01.01-.02.01-.02.36-.53.31-1.23-.14-1.68l-2.22-2.22 4.24-4.24 2.22 2.22c.45.45 1.15.5 1.68.14 0 0 .01-.01.02-.01.52-.35.75-1.01.5-1.6l-1.2-2.9 4.48-1.85c.06.33.14.66.25.98.4 1.2 1.09 2.27 2 3.14l.71.68c.19.91.62 1.74 1.23 2.4z" fill="#fcd770" data-original="#FCD770"/></g><g><path d="m39.6 12.19c.11-.32.2-.65.26-.99l4.48 1.85-1.2 2.9c-.25.59-.02 1.25.5 1.6.01 0 .02.01.02.01.53.36 1.23.31 1.68-.14l2.22-2.22 4.24 4.24-2.22 2.22c-.45.45-.5 1.15-.14 1.68 0 0 .01.01.01.02.35.52 1.01.75 1.6.5l2.9-1.2 2.3 5.54-1.04.43v.01s0 0-.01 0c-.64-.41-1.4-.64-2.2-.64-.9 0-1.74.29-2.43.79s-1.23 1.21-1.52 2.06l-.05.15-.2.05c-.08.02-.16.04-.24.07l-.01-.03c-1.49-6.33-6.52-11.29-12.88-12.69.61-.66 1.04-1.49 1.23-2.4l.23-.19c1.14-.94 1.99-2.18 2.46-3.58z" fill="#fcd770" data-original="#FCD770"/></g><g><path d="m39.59 12.23c-.47 1.4-1.32 2.64-2.46 3.58l-.23.19c.07-.32.1-.66.1-1v-1.46c0-1.47-1.06-2.72-2.51-2.96l-1.78-.29c-.99-.17-1.71-1.02-1.71-2.02 0-.02 0-.05 0-.07l-.78.16c-1.87.37-3.22 2.01-3.22 3.92v2.72c0 .34.03.68.1 1l-.71-.68c-.91-.87-1.6-1.94-2-3.14-.11-.32-.19-.65-.25-.98-.09-.47-.14-.96-.14-1.45v-.92c0-1.81.72-3.55 2-4.83s3.02-2 4.83-2h2.34c1.81 0 3.55.72 4.83 2s2 3.02 2 4.83v.92c0 .49-.05.98-.14 1.45-.06.34-.15.67-.26.99z" fill="#b27946" data-original="#B27946" class=""/></g><g><path d="m21 39v5.46c0 .97-.46 1.84-1.19 2.39-.38.29-.82.49-1.32.57l-3.49.58-.65-2.59c1.58-.84 2.65-2.5 2.65-4.41v-2l-.65-.43c-1.56-1.04-3.02-2.24-4.35-3.57v-5c1.26 0 2.45.26 3.54.73 1.06.45 2.02 1.11 2.82 1.91 1.63 1.62 2.64 3.88 2.64 6.36z" fill="#656d78" data-original="#656D78" class=""/></g><g><path d="m12 30v5c-1.33 1.33-2.79 2.53-4.35 3.57l-.65.43v2c0 1.38.56 2.63 1.46 3.54.35.35.75.64 1.19.87l-.65 2.59-3.49-.58c-1.45-.24-2.51-1.49-2.51-2.96v-5.46c0-4.74 3.67-8.63 8.32-8.97.22-.02.45-.03.68-.03z" fill="#656d78" data-original="#656D78" class=""/></g><g><path d="m49.41 35.52c-1.4.28-2.41 1.51-2.41 2.94v1.54l-.53-.53c-.94-.94-1.47-2.22-1.47-3.55 0-2.22 1.46-4.16 3.56-4.8.08-.03.16-.05.24-.07l.2-.05c0 1.44.52 2.78 1.4 3.82.12.15.26.29.4.42z" fill="#656d78" data-original="#656D78" class=""/></g><g><path d="m55.21 28.64c.8.5 1.43 1.27 1.74 2.21l.07.19c1.13.21 1.98 1.19 1.98 2.4v.12c0 1.38-.82 2.58-2 3.12-.44.21-.93.32-1.45.32h-.26c-.19 0-.39-.02-.58-.05l-.78-.13c-1.22-.21-2.3-.77-3.13-1.58-.14-.13-.28-.27-.4-.42-.88-1.04-1.4-2.38-1.4-3.82l.05-.15c.29-.85.83-1.56 1.52-2.06s1.53-.79 2.43-.79c.8 0 1.56.23 2.2.64z" fill="#656d78" data-original="#656D78" class=""/></g><g><path d="m41 28.7v5.3h-9v-7l3-5 1.54.51c.96.32 1.83.86 2.55 1.58 1.22 1.22 1.91 2.88 1.91 4.61z" fill="#ff826e" data-original="#FF826E" class="active-path" style="fill:#AE2A75" data-old_color="#ff826e"/></g><g><path d="m32 27v7h-9v-5.3c0-1.73.69-3.39 1.91-4.61.72-.72 1.59-1.26 2.55-1.58l1.54-.51z" fill="#ff826e" data-original="#FF826E" class="active-path" style="fill:#AE2A75" data-old_color="#ff826e"/></g><g><path d="m52 62v-10l3-4 1.92.55c3.01.86 5.08 3.6 5.08 6.73v6.72z" fill="#4fc1e9" data-original="#4FC1E9" class="" style="fill:#64266C" data-old_color="#4fc1e9"/></g><g><path d="m52 52v10h-10v-4.08-2.64c0-3.13 2.07-5.87 5.08-6.73l1.92-.55z" fill="#4fc1e9" data-original="#4FC1E9" class="" style="fill:#64266C" data-old_color="#4fc1e9"/></g><g><path d="m22 57.92v4.08h-20v-6.72c0-2.73 1.58-5.17 3.98-6.31l2.02 3.03 4 6 4-6 2.02-3.03c2.4 1.14 3.98 3.58 3.98 6.31z" fill="#5cd6b3" data-original="#5CD6B3" class=""/></g><g><path d="m16 52-4 6-4-6z" fill="#e6e9ed" data-original="#E6E9ED" class=""/></g><g><path d="m18.02 48.97-2.02 3.03h-8l-2.02-3.03c.35-.17.72-.31 1.1-.42l1.92-.55.65-2.59c.7.38 1.5.59 2.35.59s1.65-.21 2.35-.59l.65 2.59 1.92.55c.38.11.75.25 1.1.42z" fill="#f0d0b4" data-original="#F0D0B4" class=""/></g><g><path d="m17 39v2c0 1.91-1.07 3.57-2.65 4.41-.7.38-1.5.59-2.35.59s-1.65-.21-2.35-.59c-.44-.23-.84-.52-1.19-.87-.9-.91-1.46-2.16-1.46-3.54v-2l.65-.43c1.56-1.04 3.02-2.24 4.35-3.57 1.33 1.33 2.79 2.53 4.35 3.57z" fill="#f0d0b4" data-original="#F0D0B4" class=""/></g><g><path d="m49.65 45.41 2.35.59c.85 0 1.65-.21 2.35-.59l.65 2.59-3 4-3-4z" fill="#f0d0b4" data-original="#F0D0B4" class=""/></g><g><path d="m57 36.69v4.31c0 1.91-1.07 3.57-2.65 4.41-.7.38-1.5.59-2.35.59l-2.35-.59c-.44-.23-.84-.52-1.19-.87-.55-.56-.97-1.24-1.22-2-.16-.49-.24-1-.24-1.54v-1-1.54c0-1.43 1.01-2.66 2.41-2.94l1.39-.28c.83.81 1.91 1.37 3.13 1.58l.78.13c.19.03.39.05.58.05h.26c.52 0 1.01-.11 1.45-.32z" fill="#f0d0b4" data-original="#F0D0B4" class=""/></g><g><path d="m29.65 19.41 2.35.59c.85 0 1.65-.21 2.35-.59l.65 2.59-3 5-3-5z" fill="#f0d0b4" data-original="#F0D0B4" class=""/></g><g><path d="m37 13.54v1.46c0 .34-.03.68-.1 1-.19.91-.62 1.74-1.23 2.4-.38.41-.83.75-1.32 1.01-.7.38-1.5.59-2.35.59l-2.35-.59c-.44-.23-.84-.52-1.19-.87-.04-.04-.09-.09-.13-.14-.61-.66-1.04-1.49-1.23-2.4-.07-.32-.1-.66-.1-1v-2.72c0-1.91 1.35-3.55 3.22-3.92l.78-.16v.07c0 1 .72 1.85 1.71 2.02l1.78.29c1.45.24 2.51 1.49 2.51 2.96z" fill="#f0d0b4" data-original="#F0D0B4" class=""/></g></g><g><path d="m57.198 47.588-1.368-.391-.333-1.332c1.513-1.09 2.503-2.862 2.503-4.865v-3.73c.247-.163.48-.351.695-.565.842-.839 1.305-1.955 1.305-3.143v-.123c0-.923-.354-1.787-.999-2.436-.349-.351-.761-.616-1.219-.785-.187-.462-.44-.883-.74-1.261l.51-.211-3.062-7.391-3.824 1.585c-.136.056-.292-.001-.397-.159-.092-.139-.085-.307.018-.409l2.927-2.928-5.657-5.656-2.928 2.927c-.102.103-.27.11-.429.004-.137-.091-.194-.249-.138-.383l1.584-3.825-4.711-1.951c.025-.27.065-.537.065-.808v-.924c0-2.092-.814-4.058-2.293-5.535-1.479-1.479-3.445-2.293-5.536-2.293h-2.343c-2.091 0-4.057.814-5.536 2.293-1.478 1.478-2.292 3.443-2.292 5.535v.924c0 .271.04.538.065.807l-4.71 1.951 1.584 3.825c.056.134-.001.292-.159.397-.138.092-.305.084-.409-.019l-2.927-2.927-5.657 5.656 2.928 2.928c.103.103.109.271.004.429-.092.138-.25.193-.384.14l-3.825-1.585-3.062 7.391 2.115.876c-3.823 1.407-6.563 5.074-6.563 9.379v5.459c0 1.872 1.285 3.454 3.084 3.878-2.463 1.398-4.084 4.029-4.084 6.943v7.72h22v-3.585l2.746 1.137 1.584-3.825c.056-.135.21-.206.393-.168.163.032.277.156.277.301v4.14h8v-4.14c0-.146.114-.27.301-.307.165-.031.314.039.369.173l1.584 3.825 2.746-1.136v3.585h22v-7.72c0-3.552-2.386-6.716-5.802-7.692zm-3.284.193-1.914 2.553-1.915-2.553.255-1.02c.528.153 1.084.239 1.66.239s1.132-.086 1.659-.239zm2.086-6.781c0 2.206-1.794 4-4 4s-4-1.794-4-4v-2.541c0-.95.676-1.774 1.608-1.961l.889-.178c.912.754 2.028 1.281 3.271 1.489l.778.13c.247.04.496.061.742.061l.259.001h.014c.149 0 .293-.028.439-.043zm-40.535 10h-6.93l-1.023-1.534 2.318-.663.51-2.041c.528.152 1.084.238 1.66.238s1.132-.086 1.659-.239l.51 2.041 2.318.663zm-1.333 2-2.132 3.197-2.132-3.197zm-2.132-16.609c1.181 1.104 2.455 2.114 3.799 3.011l.201.133v1.465c0 2.206-1.794 4-4 4s-4-1.794-4-4v-1.465l.201-.134c1.344-.896 2.618-1.906 3.799-3.01zm3.746 10.471-.249-.996c1.513-1.091 2.503-2.863 2.503-4.866v-2.535l-1.092-.728c-1.395-.93-2.705-1.997-3.908-3.166v-3.502c3.94.495 7 3.859 7 7.931v5.459c0 .981-.703 1.812-1.671 1.973zm.996-16.663c1.651-5.232 5.981-9.338 11.305-10.697.146.129.298.25.456.364l-.34 1.359-1.019.34c-1.102.367-2.119.996-2.94 1.817-1.421 1.421-2.204 3.31-2.204 5.32v6.298h20v-6.298c0-2.01-.783-3.899-2.204-5.32-.821-.821-1.838-1.45-2.941-1.818l-1.018-.339-.34-1.359c.158-.114.31-.235.456-.364 5.465 1.392 9.836 5.63 11.407 11.034-2.022.998-3.36 3.055-3.36 5.384 0 1.609.626 3.121 1.764 4.258l.236.236v.586c0 .487.065.957.174 1.41-2.774 5.306-8.168 8.59-14.174 8.59-4.037 0-7.82-1.494-10.773-4.196.481-.663.773-1.469.773-2.345v-5.459c0-3.799-2.13-7.109-5.258-8.801zm11.813-6.996 2.445 4.074v5.723h-7v-4.298c0-1.476.575-2.862 1.618-3.906.604-.604 1.35-1.064 2.159-1.334zm4.445 4.074 2.445-4.075.778.259c.809.271 1.556.731 2.159 1.335 1.043 1.044 1.618 2.431 1.618 3.906v4.298h-7zm.929-5.436-1.929 3.215-1.929-3.216.27-1.079c.527.153 1.083.239 1.659.239s1.132-.086 1.659-.239zm2.071-6.841c0 2.206-1.794 4-4 4s-4-1.794-4-4v-2.721c0-1.356.918-2.543 2.21-2.895.382.971 1.249 1.705 2.336 1.887l1.782.297c.969.161 1.672.992 1.672 1.973zm10.219 22.178c-.133-.403-.219-.822-.219-1.258 0-1.516.851-2.856 2.142-3.541.161.796.457 1.545.868 2.218-1.326.341-2.363 1.326-2.791 2.581zm11.781-3.74v.123c0 .653-.255 1.267-.717 1.728-.46.459-1.072.712-1.721.712-.002 0-.005 0-.007 0l-.263-.001c-.139 0-.277-.011-.416-.034l-.779-.13c-2.323-.388-4.022-2.343-4.094-4.682.433-1.289 1.636-2.154 2.997-2.154.974 0 1.866.443 2.455 1.167-.872.281-1.606.9-2.032 1.752l-.317.634 1.789.895.317-.634c.251-.502.755-.813 1.374-.814h.001c.377 0 .731.147.997.414.268.27.416.634.416 1.024zm-14.894-15.045c.927.624 2.164.511 2.937-.265l1.513-1.513 2.829 2.828-1.513 1.514c-.775.774-.887 2.009-.253 2.954.619.927 1.801 1.296 2.812.876l1.977-.819 1.396 3.37c-.567-.212-1.172-.338-1.804-.338-1.615 0-3.088.754-4.048 1.971-1.898-5.318-6.24-9.5-11.65-11.171.206-.389.367-.804.484-1.237 1.262-1.044 2.205-2.415 2.745-4.007l2.501 1.035-.819 1.978c-.419 1.011-.051 2.194.893 2.824zm-18.106-9.565c0-1.557.606-3.021 1.707-4.121 1.101-1.101 2.565-1.707 4.122-1.707h2.343c1.557 0 3.021.606 4.122 1.707 1.1 1.101 1.706 2.564 1.706 4.121v.924c0 .721-.117 1.436-.36 2.166-.164.491-.395.951-.661 1.388-.109-1.857-1.464-3.4-3.321-3.71l-1.782-.297c-.508-.085-.876-.52-.876-1.033 0-.399.222-.759.579-.938l.868-.434-.894-1.789-.869.434c-.756.379-1.304 1.036-1.546 1.813l-.119.023c-2.329.467-4.019 2.529-4.019 4.904v.981c-.27-.438-.494-.904-.657-1.393-.227-.683-.343-1.395-.343-2.115zm-13.961 19.654-1.977-.819 1.531-3.695 1.978.819c1.01.417 2.192.049 2.823-.894.622-.928.51-2.162-.265-2.937l-1.513-1.514 2.829-2.828 1.513 1.513c.775.775 2.01.887 2.955.254.927-.619 1.295-1.802.875-2.813l-.819-1.978 2.501-1.035c.45 1.319 1.218 2.525 2.228 3.489l.508.484c.118.446.281.874.493 1.273-5.54 1.717-10.008 6.102-11.813 11.627-.915-.276-1.883-.428-2.886-.428-.067 0-.132.009-.199.01-.216-.223-.471-.407-.762-.528zm-7.039 15.977v-5.459c0-4.072 3.06-7.436 7-7.931v3.502c-1.203 1.168-2.513 2.235-3.908 3.166l-1.092.728v2.535c0 2.003.99 3.775 2.503 4.866l-.249.996-2.582-.43c-.969-.161-1.672-.992-1.672-1.973zm17 16.541h-18v-5.72c0-2.029 1.041-3.883 2.667-4.977l6.333 9.5 6.333-9.5c1.626 1.095 2.667 2.948 2.667 4.977zm18.336-3.062-.819-1.978c-.418-1.011-1.519-1.579-2.628-1.365-1.095.218-1.889 1.17-1.889 2.265v2.14h-4v-2.14c0-1.096-.794-2.048-1.909-2.268-1.095-.219-2.19.357-2.608 1.368l-.819 1.978-1.664-.688v-1.97c0-2.914-1.621-5.545-4.083-6.943.262-.062.511-.148.749-.257 3.352 3.167 7.693 4.92 12.334 4.92 6.264 0 11.934-3.178 15.215-8.394.364.482.797.907 1.288 1.26l-.333 1.332-1.367.391c-3.417.975-5.803 4.139-5.803 7.691v1.969zm3.664-2.658c0-2.665 1.79-5.037 4.352-5.769l1.261-.361 2.387 3.183v8.667h-8zm18 5.72h-8v-8.667l2.386-3.182 1.262.361c2.562.731 4.352 3.103 4.352 5.768z" data-original="#000000" class=""/><path d="m55 57h2v2h-2z" data-original="#000000" class=""/><path d="m55 53h2v2h-2z" data-original="#000000" class=""/><path d="m33 45h2v2h-2z" data-original="#000000" class=""/><path d="m37 45h2v2h-2z" data-original="#000000" class=""/><path d="m29 45h2v2h-2z" data-original="#000000" class=""/><path d="m25 45h2v2h-2z" data-original="#000000" class=""/></g></g></g> </svg>
