<?xml version="1.0"?>
<svg xmlns="http://www.w3.org/2000/svg" id="Layer_35" enable-background="new 0 0 64 64" height="512px" viewBox="0 0 64 64" width="512px" class=""><g><path d="m9 13 6 8h-3v31h-6v-31h-3z" fill="#ffeaa7" data-original="#FFEAA7" class="" style="fill:#892496" data-old_color="#ffeaa7"/><path d="m18 32h28v23h-28z" fill="#838f9b" data-original="#838F9B" class=""/><path d="m55 12 6 8h-3v31h-6v-31h-3z" fill="#ffeaa7" data-original="#FFEAA7" class="" style="fill:#892496" data-old_color="#ffeaa7"/><path d="m48 28v4h-2-28-2v-4h9 14z" fill="#aab2bd" data-original="#AAB2BD" class=""/><path d="m48 4v7.19c0 2.81-1.95 5.24-4.7 5.85l-4.3.96v10h-14v-10l-4.3-.96c-2.75-.61-4.7-3.04-4.7-5.85v-7.19c0-1.1.9-2 2-2 .55 0 1.05.22 1.41.59.37.36.59.86.59 1.41v6.31c0 .97.71 1.81 1.67 1.97l8.37 1.39h.01c.23.09.47.15.72.2l-.77 8.13 2 2 2-2-.77-8.13c.25-.05.49-.11.72-.2h.01l8.37-1.39c.96-.16 1.67-1 1.67-1.97v-6.31c0-1.1.9-2 2-2 .55 0 1.05.22 1.41.59.37.36.59.86.59 1.41z" fill="#ff826e" data-original="#FF826E" class="active-path" style="fill:#C95195" data-old_color="#ff826e"/><path d="m33.23 13.87.77 8.13-2 2-2-2 .77-8.13c.4.09.81.13 1.23.13s.83-.04 1.23-.13z" fill="#e6e9ed" data-original="#E6E9ED" class=""/><path d="m11 62h-5v-2c0-5.52 4.48-10 10-10 3.28 0 6.17 1.58 7.99 4.01-1.25 1.67-1.99 3.74-1.99 5.99v2z" fill="#b4dd7f" data-original="#B4DD7F" class="" style="fill:#5BC4C7" data-old_color="#b4dd7f"/><path d="m48 50c5.52 0 10 4.48 10 10v2h-5-11v-2c0-2.25-.74-4.32-1.99-5.99 1.82-2.43 4.71-4.01 7.99-4.01z" fill="#b4dd7f" data-original="#B4DD7F" class="" style="fill:#5BC4C7" data-old_color="#b4dd7f"/><path d="m32 50c3.27 0 6.18 1.58 8.01 4.01 1.25 1.67 1.99 3.74 1.99 5.99v2h-1-4-10-4-1v-2c0-2.25.74-4.32 1.99-5.99.29-.38.6-.74.94-1.08 1.81-1.81 4.31-2.93 7.07-2.93z" fill="#fcd770" data-original="#FCD770" class=""/><g fill="#f0d0b4"><path d="m48 38c3.31 0 6 2.69 6 6s-2.69 6-6 6-6-2.69-6-6c0-2.61 1.67-4.84 4-5.65.63-.23 1.3-.35 2-.35z" data-original="#F0D0B4"/><circle cx="32" cy="44" r="6" data-original="#F0D0B4"/><path d="m18 38.35c2.33.81 4 3.04 4 5.65 0 3.31-2.69 6-6 6s-6-2.69-6-6 2.69-6 6-6c.7 0 1.37.12 2 .35z" data-original="#F0D0B4"/><path d="m32 2c3.31 0 6 2.69 6 6 0 2.63-1.69 4.86-4.04 5.67h-.01c-.23.09-.47.15-.72.2-.4.09-.81.13-1.23.13s-.83-.04-1.23-.13c-.25-.05-.49-.11-.72-.2h-.01c-2.35-.81-4.04-3.04-4.04-5.67 0-3.31 2.69-6 6-6z" data-original="#F0D0B4"/></g><path d="m55 10.333-8 10.667h4v15h2v-17h-2l4-5.333 4 5.333h-2v24h2v-22h4z" data-original="#000000" class=""/><path d="m5 44h2v-24h-2l4-5.333 4 5.333h-2v16h2v-14h4l-8-10.667-8 10.667h4z" data-original="#000000" class=""/><path d="m51.975 49.755c1.825-1.265 3.025-3.372 3.025-5.755 0-3.859-3.14-7-7-7-.34 0-.672.033-1 .08v-4.08h2v-6h-9v-8.198l3.519-.782c3.227-.717 5.481-3.527 5.481-6.833v-7.187c0-1.654-1.346-3-3-3s-3 1.346-3 3v6.306c0 .491-.352.906-.836.986l-4.453.742c.809-1.141 1.289-2.531 1.289-4.034 0-3.86-3.14-7-7-7s-7 3.14-7 7c0 1.503.48 2.893 1.289 4.034l-4.453-.742c-.484-.081-.836-.496-.836-.986v-6.306c0-1.654-1.346-3-3-3s-3 1.346-3 3v7.187c0 3.306 2.254 6.116 5.481 6.833l3.519.782v8.198h-9v6h2v4.08c-.328-.047-.66-.08-1-.08-3.86 0-7 3.141-7 7 0 2.383 1.2 4.49 3.025 5.755-4.104 1.598-7.025 5.582-7.025 10.245v3h16 2 18 2 16v-3c0-4.663-2.921-8.647-7.025-10.245zm1.025-5.755c0 2.757-2.243 5-5 5s-5-2.243-5-5 2.243-5 5-5 5 2.243 5 5zm-20.04-22.375-.96.961-.96-.96.626-6.642c.111.004.221.016.334.016s.223-.012.334-.017zm-.96-18.625c2.757 0 5 2.243 5 5s-2.243 5-5 5-5-2.243-5-5 2.243-5 5-5zm-11.085 13.068c-2.305-.512-3.915-2.519-3.915-4.881v-7.187c0-.551.449-1 1-1s1 .449 1 1v6.306c0 1.473 1.054 2.717 2.507 2.959l8.184 1.364-.73 7.746 3.04 3.04 3.04-3.04-.73-7.746 8.184-1.364c1.451-.242 2.505-1.487 2.505-2.959v-6.306c0-.551.449-1 1-1s1 .449 1 1v7.187c0 2.362-1.61 4.369-3.915 4.881l-5.085 1.13v9.802h-12v-9.802zm-3.915 12.932h30v2h-30zm2 4h26v4.685c-2.361 1.126-4 3.53-4 6.315 0 2.381 1.198 4.486 3.02 5.751-1.513.588-2.886 1.505-4.022 2.72-1.114-1.183-2.483-2.117-4.023-2.716 1.825-1.265 3.025-3.372 3.025-5.755 0-3.859-3.14-7-7-7s-7 3.141-7 7c0 2.383 1.2 4.49 3.025 5.755-1.539.6-2.909 1.534-4.023 2.716-1.136-1.215-2.509-2.132-4.022-2.72 1.822-1.265 3.02-3.37 3.02-5.751 0-2.785-1.639-5.188-4-6.315zm8 11c0-2.757 2.243-5 5-5s5 2.243 5 5-2.243 5-5 5-5-2.243-5-5zm-16 0c0-2.757 2.243-5 5-5s5 2.243 5 5-2.243 5-5 5-5-2.243-5-5zm1 17v-6h-2v6h-3v-1c0-4.963 4.038-9 9-9 2.617 0 5.033 1.12 6.745 3.078-1.099 1.712-1.745 3.741-1.745 5.922v1zm26 0v-6h-2v6h-8v-6h-2v6h-3v-1c0-4.963 4.038-9 9-9s9 4.037 9 9v1zm19 0h-3v-6h-2v6h-9v-1c0-2.181-.646-4.21-1.745-5.922 1.712-1.958 4.128-3.078 6.745-3.078 4.962 0 9 4.037 9 9z" data-original="#000000" class=""/><path d="m57 45h2v2h-2z" data-original="#000000" class=""/><path d="m57 49h2v2h-2z" data-original="#000000" class=""/><path d="m5 46h2v2h-2z" data-original="#000000" class=""/><path d="m5 50h2v2h-2z" data-original="#000000" class=""/></g> </svg>
