<svg id="Layer_5" enable-background="new 0 0 64 64" height="512" viewBox="0 0 64 64" width="512" xmlns="http://www.w3.org/2000/svg"><g><g><g><path d="m58 6v5.62c-.76-1.02-1.95-1.62-3.22-1.62h-3.78-6-6-6-3.78c-1.28 0-2.47.61-3.22 1.63v-5.63c0-2.21 1.79-4 4-4h7l1 4h12l1-4h3c2.21 0 4 1.79 4 4z" fill="#969faa"/></g><g><path d="m58 44v8c0 2.21-1.79 4-4 4h-24c-2.21 0-4-1.79-4-4v-6c1.1 0 2-.9 2-2z" fill="#969faa"/></g><g><path d="m58 24v20h-30v-26h2v2c0 2.21 1.79 4 4 4 1.1 0 2.1-.45 2.83-1.17.72-.73 1.17-1.73 1.17-2.83 0 2.21 1.79 4 4 4 1.1 0 2.1-.45 2.83-1.17.72-.73 1.17-1.73 1.17-2.83 0 2.21 1.79 4 4 4 1.1 0 2.1-.45 2.83-1.17.72-.73 1.17-1.73 1.17-2.83 0 2.21 1.79 4 4 4z" fill="#69d6f4"/></g><g><path d="m51 2-1 4h-12l-1-4z" fill="#fcd770"/></g><g><path d="m38 18v2c0 1.1-.45 2.1-1.17 2.83-.73.72-1.73 1.17-2.83 1.17-2.21 0-4-1.79-4-4v-2z" fill="#fcd770"/></g><g><path d="m54 18v2c0 1.1-.45 2.1-1.17 2.83-.73.72-1.73 1.17-2.83 1.17-2.21 0-4-1.79-4-4v-2z" fill="#fcd770"/></g><g><path d="m51 10 3 8h-8l-1-8z" fill="#ffeaa7"/></g><g><path d="m39 10-1 8h-8l3-8z" fill="#ffeaa7"/></g><g><path d="m62 18v2c0 1.1-.45 2.1-1.17 2.83-.73.72-1.73 1.17-2.83 1.17-2.21 0-4-1.79-4-4v-2z" fill="#fc6e51"/></g><g><path d="m58.18 11.88 3.82 6.12h-8l-3-8h3.78c1.27 0 2.46.6 3.22 1.62.06.08.12.17.18.26z" fill="#ff826e"/></g><g><path d="m54 49v2c0 .55-.45 1-1 1h-.59c-.26 0-.52-.11-.7-.29l-1.71-1.71 1.71-1.71c.18-.18.44-.29.7-.29h.59c.55 0 1 .45 1 1z" fill="#e6e9ed"/></g><g><path d="m50 32-2 8h-12l-2-8h7 2z" fill="#cf9e76"/></g><g><path d="m46 18v2c0 1.1-.45 2.1-1.17 2.83-.73.72-1.73 1.17-2.83 1.17-2.21 0-4-1.79-4-4v-2z" fill="#fc6e51"/></g><g><path d="m45 10 1 8h-8l1-8z" fill="#ff826e"/></g><g><path d="m44 49v2c0 .55-.45 1-1 1h-2c-.55 0-1-.45-1-1v-2c0-.55.45-1 1-1h2c.55 0 1 .45 1 1z" fill="#e6e9ed"/></g><g><path d="m34 50-1.71 1.71c-.18.18-.44.29-.7.29h-.59c-.55 0-1-.45-1-1v-2c0-.55.45-1 1-1h.59c.26 0 .52.11.7.29z" fill="#e6e9ed"/></g><g><path d="m33 10-3 8h-2v-4c0-1.1-.9-2-2-2h-.25l.07-.12c.06-.09.11-.17.18-.25.75-1.02 1.94-1.63 3.22-1.63z" fill="#ff826e"/></g><g><path d="m28 18v26c0 1.1-.9 2-2 2h-2v-10c0-.55-.45-1-1-1-.83 0-1.58.34-2.12.88s-.88 1.29-.88 2.12v8h-10v-34h15.75.25c1.1 0 2 .9 2 2z" fill="#b4dd7f"/></g><g><path d="m20 46v-8c0-.83.34-1.58.88-2.12s1.29-.88 2.12-.88c.55 0 1 .45 1 1v10 2.9c0 1.36-.46 2.68-1.31 3.74l-2.69 3.36h-12l-2.69-3.36c-.85-1.06-1.31-2.38-1.31-3.74v-2.9h2 4z" fill="#f0d0b4"/></g><g><path d="m24 20v6h-6v-4h2v-2z" fill="#fcd770"/></g><g><path d="m23 56v6h-18v-6h3 12z" fill="#ff826e"/></g><g><path d="m20 20v2h-2-4v-6h6z" fill="#ff826e"/></g><g><path d="m6 12h4v34h-4z" fill="#ffeaa7"/></g><g><path d="m6 12v34h-2c-1.1 0-2-.9-2-2v-30c0-1.1.9-2 2-2z" fill="#b4dd7f"/></g></g><g><path d="m25 19h-4v-4h-8v8h4v4h8zm-10-2h4v4h-4zm8 8h-4v-2h2v-2h2z"/><path d="m13 33h2v2h-2z"/><path d="m13 41h2v2h-2z"/><path d="m13 37h2v2h-2z"/><path d="m31.586 47h-.586c-1.103 0-2 .897-2 2v2c0 1.103.897 2 2 2h.586c.526 0 1.042-.214 1.414-.586l2.414-2.414-2.414-2.414c-.372-.372-.888-.586-1.414-.586zm0 4h-.586v-2h.586l1 1z"/><path d="m43 47h-2c-1.103 0-2 .897-2 2v2c0 1.103.897 2 2 2h2c1.103 0 2-.897 2-2v-2c0-1.103-.897-2-2-2zm-2 4v-2h2l.002 2z"/><path d="m53 47h-.586c-.526 0-1.042.214-1.414.586l-2.414 2.414 2.414 2.414c.372.372.888.586 1.414.586h.586c1.103 0 2-.897 2-2v-2c0-1.103-.897-2-2-2zm-.586 4-1-1 1-1h.586l.002 2z"/><path d="m59.022 11.35c-.007-.011-.016-.02-.022-.031v-5.319c0-2.757-2.243-5-5-5h-24c-2.757 0-5 2.243-5 5v5h-21c-1.654 0-3 1.346-3 3v30c0 1.302.839 2.402 2 2.816v2.08c0 1.583.545 3.137 1.533 4.373l1.386 1.731h-1.919v8h20v-8h-1.919l1.385-1.731c.989-1.237 1.534-2.79 1.534-4.373v3.104c0 2.757 2.243 5 5 5h24c2.757 0 5-2.243 5-5v-27.101c2.279-.465 4-2.484 4-4.899v-2.287zm-2.022 13.549v18.101h-28v-23c0 2.757 2.243 5 5 5 1.641 0 3.088-.806 4-2.031.912 1.225 2.359 2.031 4 2.031s3.088-.806 4-2.031c.912 1.225 2.359 2.031 4 2.031s3.088-.806 4-2.031c.722.97 1.774 1.68 3 1.93zm-6.693-13.899 2.25 6h-5.681l-.744-6zm-19.307 8h6v1c0 1.654-1.346 3-3 3s-3-1.346-3-3zm8 0h6v1c0 1.654-1.346 3-3 3s-3-1.346-3-3zm5.117-8 .75 6h-5.734l.75-6zm-7 6h-5.674l2.25-6h4.174zm-7.81 0h-.307v-3c0-1.058-.554-1.985-1.384-2.52.472-.3 1.018-.48 1.601-.48h2.34zm20.693 6c-1.654 0-3-1.346-3-3v-1h6v1c0 1.654-1.346 3-3 3zm4.693-6-2.25-6h2.34c1.041 0 1.992.527 2.544 1.41l2.869 4.59zm-4.974-14-.501 2h-10.437l-.501-2zm-19.719 0h6.219l.999 4h13.563l.999-4h2.22c1.654 0 3 1.346 3 3v3.524c-.677-.335-1.43-.524-2.217-.524h-25.566c-.787 0-1.54.189-2.217.524v-3.524c0-1.654 1.346-3 3-3zm-23 42v-32h2v32zm-4-31c0-.551.448-1 1-1h1v32h-1c-.552 0-1-.448-1-1zm19 47h-16v-4h16zm1-12.104c0 1.131-.389 2.24-1.096 3.123l-2.385 2.981h-11.038l-2.385-2.981c-.707-.883-1.096-1.993-1.096-3.123v-1.896h12.629c-1.053 1.257-1.629 2.826-1.629 4.485v1.515h2v-1.515c0-1.336.521-2.592 1.465-3.536l1.535-1.535v-8.414c0-1.103.897-2 2-2zm0-14.896c-2.206 0-4 1.794-4 4v7h-8v-32h15c.552 0 1 .449 1 1v30c0 .552-.448 1-1 1h-1v-9c0-1.103-.897-2-2-2zm31 21h-24c-1.654 0-3-1.346-3-3v-5.184c.847-.302 1.514-.969 1.816-1.816h28.184v7c0 1.654-1.346 3-3 3zm4-32c-1.654 0-3-1.346-3-3v-1h6v1c0 1.654-1.346 3-3 3z"/><path d="m48.707 27.707-1.414-1.414-4.707 4.707h-1.172l-4.707-4.707-1.414 1.414 3.293 3.293h-5.867l2.5 10h13.563l2.5-10h-5.867zm-1.488 11.293h-10.438l-1.5-6h13.438z"/></g></g></svg>